<svg width="91" height="28" viewBox="0 0 91 28" fill="none" xmlns="http://www.w3.org/2000/svg">
<path d="M15.32 13.64C15.32 14.8133 14.72 15.4 13.52 15.4C13.12 15.4 12.7867 15.3067 12.52 15.12C12.2533 14.9333 11.96 14.6533 11.64 14.28C10.84 13.4 10.1467 12.96 9.56 12.96C8.78667 12.96 8.02667 13.1867 7.28 13.64C6.56 14.0933 5.97333 14.7333 5.52 15.56C5.06667 16.3867 4.84 17.3067 4.84 18.32C4.84 19.44 5.05333 20.3733 5.48 21.12C5.93333 21.8667 6.62667 22.5067 7.56 23.04C7.90667 23.2267 8.30667 23.3733 8.76 23.48C9.24 23.5867 9.65333 23.64 10 23.64C10.7733 23.64 11.7467 23.3333 12.92 22.72C13.3467 22.5067 13.7067 22.3467 14 22.24C14.2933 22.1333 14.6 22.08 14.92 22.08C15.2133 22.08 15.5467 22.2133 15.92 22.48C16.2933 22.7467 16.48 23.08 16.48 23.48C16.48 24.28 16.1067 24.96 15.36 25.52C14.6133 26.0533 13.6933 26.4667 12.6 26.76C11.5333 27.0267 10.5067 27.16 9.52 27.16C7.94667 27.16 6.48 26.8 5.12 26.08C3.78667 25.36 2.72 24.3733 1.92 23.12C1.12 21.84 0.72 20.4 0.72 18.8C0.72 17.0933 1.10667 15.5333 1.88 14.12C2.65333 12.7067 3.69333 11.6 5 10.8C6.30667 10 7.73333 9.6 9.28 9.6C10.16 9.6 11.0667 9.76 12 10.08C12.9333 10.4 13.72 10.8667 14.36 11.48C15 12.0933 15.32 12.8133 15.32 13.64ZM36.19 27.12C34.19 27.12 32.8433 26.3467 32.15 24.8C31.8033 24.0267 31.5767 23.0267 31.47 21.8C31.3633 20.5467 31.31 19.08 31.31 17.4V16.16C31.31 14.24 30.67 13.28 29.39 13.28C28.6433 13.28 27.8967 13.6667 27.15 14.44C26.4033 15.1867 25.7767 16.1867 25.27 17.44C24.79 18.6667 24.55 19.9467 24.55 21.28C24.55 22.16 24.59 22.96 24.67 23.68C24.7233 24.5867 24.75 25.28 24.75 25.76C24.75 26.6667 24.1233 27.12 22.87 27.12C22.2567 27.12 21.71 26.9867 21.23 26.72C20.7767 26.4533 20.55 26.1067 20.55 25.68C20.6567 24.32 20.71 22.64 20.71 20.64L20.67 15.36C20.67 14.5067 20.6033 11.3467 20.47 5.88L20.35 2.2C20.35 1.61333 20.6167 1.10667 21.15 0.679998C21.6833 0.226666 22.2833 -4.76837e-07 22.95 -4.76837e-07C23.5367 -4.76837e-07 23.9633 0.133333 24.23 0.399999C24.4967 0.666666 24.63 1.08 24.63 1.64C24.63 2.33333 24.6167 3.14667 24.59 4.08C24.5633 4.98667 24.5367 5.68 24.51 6.16C24.43 7.52 24.39 8.88 24.39 10.24C24.39 11.5733 24.3633 12.6267 24.31 13.4C25.11 12.2267 26.0167 11.36 27.03 10.8C28.07 10.2133 29.2833 9.92 30.67 9.92C31.6833 9.92 32.6167 10.3733 33.47 11.28C34.35 12.16 34.8833 13.1733 35.07 14.32C35.1233 14.9067 35.15 15.7733 35.15 16.92L35.11 19.84C35.11 20.2933 35.1367 21 35.19 21.96C35.2167 22.4133 35.3633 22.8933 35.63 23.4C35.9233 23.9067 36.2567 24.28 36.63 24.52C36.9767 24.7333 37.2033 24.9467 37.31 25.16C37.4167 25.3733 37.47 25.6133 37.47 25.88C37.47 26.1467 37.35 26.4267 37.11 26.72C36.87 26.9867 36.5633 27.12 36.19 27.12ZM58.4997 25.08C58.4997 25.6667 58.1797 26.16 57.5397 26.56C56.9264 26.96 56.353 27.16 55.8197 27.16C54.8064 27.16 53.993 27.04 53.3797 26.8C52.793 26.5333 52.2464 26.0533 51.7397 25.36C51.0464 25.9733 50.0997 26.44 48.8997 26.76C47.6997 27.0533 46.593 27.2 45.5797 27.2C43.9264 27.2 42.5664 26.76 41.4997 25.88C40.433 24.9733 39.8997 23.6533 39.8997 21.92C39.8997 21.1733 40.0997 20.4933 40.4997 19.88C40.8997 19.24 41.4464 18.68 42.1397 18.2C42.913 17.6933 43.793 17.3067 44.7797 17.04C45.7664 16.7467 46.793 16.6 47.8597 16.6C48.4197 16.6 49.0864 16.7067 49.8597 16.92C50.633 17.1333 51.233 17.36 51.6597 17.6V16.96C51.6597 15.52 51.313 14.5333 50.6197 14C49.9264 13.44 48.8064 13.16 47.2597 13.16C46.8064 13.16 46.353 13.2533 45.8997 13.44C45.473 13.6267 44.9797 13.88 44.4197 14.2C43.673 14.6 42.9664 14.8 42.2997 14.8C42.0597 14.8 41.833 14.64 41.6197 14.32C41.4064 13.9733 41.2997 13.6667 41.2997 13.4C41.2997 12.6267 41.6597 11.96 42.3797 11.4C43.1264 10.84 44.0064 10.4267 45.0197 10.16C46.033 9.86667 46.9397 9.72 47.7397 9.72C48.5397 9.72 49.4597 9.88 50.4997 10.2C51.5397 10.4933 52.393 10.9067 53.0597 11.44C53.8597 12.1333 54.473 12.9467 54.8997 13.88C55.353 14.7867 55.5797 15.7867 55.5797 16.88C55.5797 17.2267 55.553 17.7467 55.4997 18.44C55.4464 19.1867 55.4197 19.8267 55.4197 20.36C55.4197 20.6 55.393 20.96 55.3397 21.44C55.2864 22.0267 55.2597 22.4933 55.2597 22.84C55.2597 23.16 55.3797 23.44 55.6197 23.68C55.8597 23.8933 56.1397 24 56.4597 24L57.5797 23.96C57.873 23.96 58.0997 24.0667 58.2597 24.28C58.4197 24.4933 58.4997 24.76 58.4997 25.08ZM45.6197 24.04C46.7664 24.04 47.7264 23.92 48.4997 23.68C49.273 23.44 50.2064 23 51.2997 22.36C51.4064 21.9067 51.473 21.3067 51.4997 20.56C50.033 19.8667 48.8197 19.52 47.8597 19.52C46.7664 19.52 45.793 19.72 44.9397 20.12C44.0864 20.52 43.6597 21.2267 43.6597 22.24C43.6597 22.7467 43.873 23.1733 44.2997 23.52C44.7264 23.8667 45.1664 24.04 45.6197 24.04ZM61.2391 13.16C60.8657 13.1067 60.5591 12.9467 60.3191 12.68C60.1057 12.4133 59.9991 12.0933 59.9991 11.72C59.9991 11.5333 60.0391 11.3333 60.1191 11.12C60.2257 10.9067 60.3724 10.72 60.5591 10.56C60.9057 10.2667 61.3724 9.98667 61.9591 9.72C62.5724 9.48 63.0124 9.18667 63.2791 8.84C63.5457 8.49333 63.6791 7.84 63.6791 6.88C63.6791 6.48 63.6524 6.13333 63.5991 5.84C63.5724 5.54667 63.5591 5.32 63.5591 5.16C63.5591 4.57333 63.7724 4.13333 64.1991 3.84C64.6257 3.54667 65.1191 3.4 65.6791 3.4C66.3724 3.4 66.8391 3.57333 67.0791 3.92C67.3457 4.26667 67.4791 4.90667 67.4791 5.84C67.4791 6.74667 67.4391 7.53333 67.3591 8.2C67.2791 8.84 67.1057 9.41333 66.8391 9.92C67.2124 9.92 67.8257 9.89333 68.6791 9.84C69.8524 9.78667 70.6657 9.76 71.1191 9.76C71.5724 9.76 71.9724 9.88 72.3191 10.12C72.6657 10.3333 72.8391 10.64 72.8391 11.04C72.8391 11.6 72.7191 12.0133 72.4791 12.28C72.2391 12.5467 71.8924 12.72 71.4391 12.8C70.3457 13.0933 68.7991 13.2667 66.7991 13.32C66.7457 14.36 66.7191 15.4933 66.7191 16.72C66.7191 18.7733 66.8391 20.3467 67.0791 21.44C67.2391 22.2933 67.5057 22.92 67.8791 23.32C68.2791 23.6933 68.8657 23.88 69.6391 23.88C70.0391 23.88 70.3591 23.8267 70.5991 23.72C70.8657 23.6133 71.0124 23.5467 71.0391 23.52C71.3591 23.3333 71.6524 23.24 71.9191 23.24C72.2924 23.24 72.5591 23.36 72.7191 23.6C72.9057 23.84 72.9991 24.16 72.9991 24.56C72.9991 25.3067 72.5991 25.9333 71.7991 26.44C70.9991 26.92 69.9724 27.16 68.7191 27.16C67.3057 27.16 66.1057 26.7467 65.1191 25.92C64.1591 25.0667 63.5857 23.9467 63.3991 22.56C63.1324 21.3067 62.9991 19.5467 62.9991 17.28C62.9991 16.2933 63.0524 14.9733 63.1591 13.32L61.2391 13.16ZM87.3981 18C87.6115 18.1333 88.0248 18.3867 88.6381 18.76C89.2781 19.1067 89.7048 19.52 89.9181 20C90.1315 20.48 90.2381 21.1467 90.2381 22C90.2381 22.96 89.9581 23.8133 89.3981 24.56C88.8381 25.28 88.1181 25.84 87.2381 26.24C86.5981 26.5333 85.8115 26.76 84.8781 26.92C83.9715 27.08 83.2515 27.16 82.7181 27.16C82.1848 27.16 81.4915 27.08 80.6381 26.92C79.8115 26.76 79.2381 26.6133 78.9181 26.48C78.0915 26 77.3715 25.4133 76.7581 24.72C76.1715 24.0267 75.8781 23.32 75.8781 22.6C75.8781 22.0667 76.0515 21.6533 76.3981 21.36C76.7448 21.04 77.1981 20.88 77.7581 20.88C78.0248 20.88 78.3048 20.9867 78.5981 21.2C78.8915 21.3867 79.0915 21.5867 79.1981 21.8C79.4915 22.4933 79.9848 23.0133 80.6781 23.36C81.3715 23.7067 82.0781 23.88 82.7981 23.88C83.7315 23.88 84.5981 23.7333 85.3981 23.44C86.1981 23.12 86.5981 22.6933 86.5981 22.16C86.5981 21.92 86.5315 21.7333 86.3981 21.6C86.2915 21.44 86.1315 21.28 85.9181 21.12C85.5448 20.8533 84.9848 20.64 84.2381 20.48C83.4915 20.2933 83.0115 20.1733 82.7981 20.12C81.7048 19.88 80.6381 19.52 79.5981 19.04C78.5581 18.5333 77.7315 17.9333 77.1181 17.24C76.5048 16.5467 76.1981 15.6533 76.1981 14.56C76.1981 13.84 76.4648 13.0933 76.9981 12.32C77.5315 11.52 78.1315 10.96 78.7981 10.64C79.2781 10.4533 80.0781 10.2533 81.1981 10.04C82.3448 9.82667 83.1181 9.72 83.5181 9.72C84.1315 9.72 84.7981 9.78667 85.5181 9.92C86.2381 10.0267 86.7848 10.2133 87.1581 10.48C87.8781 10.9067 88.4648 11.36 88.9181 11.84C89.3715 12.2933 89.5981 12.8133 89.5981 13.4C89.5981 13.6933 89.5315 14.0133 89.3981 14.36C89.2648 14.68 89.1048 14.88 88.9181 14.96C88.5181 15.1467 88.0515 15.24 87.5181 15.24C87.2781 15.24 87.0781 15.1733 86.9181 15.04C86.7848 14.9067 86.5981 14.6933 86.3581 14.4C86.0648 13.9467 85.7848 13.68 85.5181 13.6C85.1981 13.52 84.7315 13.4267 84.1181 13.32C83.5048 13.1867 83.0915 13.12 82.8781 13.12C82.2648 13.12 81.6248 13.2933 80.9581 13.64C80.3181 13.9867 79.9981 14.3867 79.9981 14.84C79.9981 15.08 80.0915 15.2667 80.2781 15.4C80.4915 15.5333 80.7048 15.6533 80.9181 15.76C81.1581 15.8667 81.3181 15.9333 81.3981 15.96C81.9581 16.2267 82.5715 16.4533 83.2381 16.64C83.9315 16.8267 84.3581 16.9467 84.5181 17C85.9581 17.3467 86.9181 17.68 87.3981 18Z" fill="black"/>
</svg>
