<svg width="80" height="80" viewBox="0 0 80 80" fill="none" xmlns="http://www.w3.org/2000/svg">
<path d="M79.94 5.75837L69.9397 70.6186C69.7053 72.1396 68.7873 73.4655 67.4443 74.2202C66.6874 74.6451 65.8395 74.8604 64.9942 74.8604C64.3398 74.8604 63.6943 74.733 63.0738 74.4742L43.9169 66.4897L35.9698 78.4101C35.3604 79.4531 34.3447 80 33.2509 80C31.454 80 30.0008 78.5469 30.0008 76.75V61.7216C30.0008 60.6099 30.3714 59.5294 31.0543 58.6528L65.002 14.9991L19.1098 56.2966L3.07643 49.609C1.31824 48.8746 0.126715 47.2183 0.00952326 45.1714C-0.107668 43.1245 0.864084 41.4651 2.51899 40.5198L72.5214 0.659858C74.1918 -0.294686 76.2528 -0.206873 77.8341 0.879548C79.4154 1.96597 80.2369 3.86146 79.94 5.75837Z" fill="#D894A0"/>
</svg>
