<svg width="90" height="28" viewBox="0 0 90 28" fill="none" xmlns="http://www.w3.org/2000/svg">
<path d="M4.96 1.64C4.96 2.33333 4.94667 3.14667 4.92 4.08C4.89333 4.98667 4.86667 5.68 4.84 6.16C4.76 7.52 4.72 8.88 4.72 10.24C4.72 11.2533 4.76 12.3067 4.84 13.4C5.66667 12.2 6.56 11.32 7.52 10.76C8.48 10.2 9.64 9.92 11 9.92C11.9867 9.92 12.9067 10.36 13.76 11.24C14.6133 12.12 15.16 13.1467 15.4 14.32C15.48 15.36 15.52 16.6267 15.52 18.12C15.52 19.08 15.5733 20.3333 15.68 21.88C15.7333 22.4667 15.88 23.0133 16.12 23.52C16.3867 24.0267 16.76 24.28 17.24 24.28C17.48 24.28 17.6667 24.2667 17.8 24.24C17.96 24.2133 18.1067 24.2 18.24 24.2C18.6133 24.2 18.8667 24.2933 19 24.48C19.16 24.6667 19.24 24.9333 19.24 25.28C19.24 25.92 18.92 26.4 18.28 26.72C17.64 27.04 17.0533 27.2 16.52 27.2C14.6 27.2 13.28 26.4 12.56 24.8C12.16 23.8933 11.9067 22.72 11.8 21.28C11.6933 19.8133 11.64 18.1067 11.64 16.16C11.64 14.24 10.9867 13.28 9.68 13.28C8.96 13.28 8.22667 13.6667 7.48 14.44C6.76 15.1867 6.16 16.1867 5.68 17.44C5.2 18.6667 4.96 19.9467 4.96 21.28L5 25.44C5 26.0267 4.77333 26.4667 4.32 26.76C3.86667 27.0267 3.44 27.16 3.04 27.16C2.45333 27.16 1.92 26.9867 1.44 26.64C0.96 26.2667 0.72 25.8533 0.72 25.4C0.906667 23.4 1 20.0533 1 15.36C1 14.5067 0.933333 11.3467 0.8 5.88L0.68 2.2C0.68 1.61333 0.946667 1.10667 1.48 0.679998C2.01333 0.226666 2.61333 -4.76837e-07 3.28 -4.76837e-07C3.86667 -4.76837e-07 4.29333 0.133333 4.56 0.399999C4.82667 0.666666 4.96 1.08 4.96 1.64ZM37.4834 14.16C37.6968 14.5333 37.8701 15.08 38.0034 15.8C38.1368 16.4933 38.2034 17.12 38.2034 17.68C38.2034 18.72 37.9768 20.2 37.5234 22.12C35.6834 25.48 32.9634 27.16 29.3634 27.16C28.0301 27.16 26.6701 26.72 25.2834 25.84C23.8968 24.96 22.9368 23.9467 22.4034 22.8C21.6834 20.5067 21.3234 19.0533 21.3234 18.44C21.3234 17.3733 21.5501 16.24 22.0034 15.04C22.4834 13.84 23.0834 12.8 23.8034 11.92C24.2568 11.3067 25.0701 10.7867 26.2434 10.36C27.4168 9.90667 28.4834 9.68 29.4434 9.68C31.3101 9.68 32.8968 10.04 34.2034 10.76C35.5101 11.4533 36.6034 12.5867 37.4834 14.16ZM34.0034 20.6C34.1368 20.2533 34.2034 19.36 34.2034 17.92C34.2034 17.1467 34.0568 16.3867 33.7634 15.64C33.4968 14.8933 33.0968 14.2533 32.5634 13.72C32.5101 13.6667 32.3634 13.5867 32.1234 13.48C31.8834 13.3467 31.5501 13.2267 31.1234 13.12C30.7234 12.9867 30.2568 12.92 29.7234 12.92C28.2301 12.92 27.1368 13.52 26.4434 14.72C25.7501 15.92 25.4034 17.28 25.4034 18.8C25.4034 19.0667 25.4701 19.5733 25.6034 20.32C25.7634 21.0667 25.8968 21.5333 26.0034 21.72C26.0834 21.9067 26.2834 22.1733 26.6034 22.52C26.9501 22.84 27.3634 23.1333 27.8434 23.4C28.3501 23.64 28.8701 23.76 29.4034 23.76C30.6034 23.76 31.5634 23.48 32.2834 22.92C33.0034 22.3333 33.5768 21.56 34.0034 20.6ZM42.0722 13.24C41.4055 12.68 41.0722 12.0267 41.0722 11.28C41.0722 10.9067 41.2589 10.5733 41.6322 10.28C42.0055 9.96 42.4589 9.8 42.9922 9.8C43.9522 9.8 44.7389 10.0533 45.3522 10.56C45.9655 11.0667 46.4989 11.8 46.9522 12.76C47.5122 11.72 48.2189 10.96 49.0722 10.48C49.9522 9.97333 51.0589 9.72 52.3922 9.72C53.1922 9.72 53.8322 9.82667 54.3122 10.04C54.8189 10.2267 55.2322 10.5067 55.5522 10.88C55.8722 11.2267 56.2722 11.76 56.7522 12.48C57.4455 11.6267 58.3122 10.96 59.3522 10.48C60.4189 10 61.5122 9.76 62.6322 9.76C63.9389 9.76 65.1255 10.3067 66.1922 11.4C67.2855 12.4933 68.0189 13.7333 68.3922 15.12C68.5255 15.7067 68.6189 17.0933 68.6722 19.28L68.8322 21.6C68.9655 23.0133 69.4189 23.8533 70.1922 24.12C70.5655 24.2267 70.8722 24.36 71.1122 24.52C71.3789 24.6533 71.5122 24.8 71.5122 24.96C71.5655 25.6 71.4189 26.0667 71.0722 26.36C70.8322 26.52 70.4989 26.6933 70.0722 26.88C69.6455 27.0667 69.3122 27.16 69.0722 27.16C67.6322 27.16 66.6055 26.64 65.9922 25.6C65.5922 24.9067 65.3389 24.12 65.2322 23.24C65.1255 22.3333 65.0722 21.1067 65.0722 19.56C65.0722 17.9067 64.8722 16.4933 64.4722 15.32C64.0722 14.12 63.1655 13.52 61.7522 13.52C61.2455 13.52 60.7389 13.68 60.2322 14C59.7522 14.2933 59.4055 14.6667 59.1922 15.12C58.8189 15.84 58.5655 16.6267 58.4322 17.48C58.2989 18.3067 58.2322 19.2667 58.2322 20.36C58.2322 21.0533 58.2722 21.76 58.3522 22.48C58.3522 22.6933 58.3655 23.04 58.3922 23.52C58.4455 23.9733 58.4722 24.3867 58.4722 24.76C58.4722 25.4267 58.3389 26 58.0722 26.48C57.8322 26.9333 57.4055 27.16 56.7922 27.16C55.3255 27.16 54.5522 26.3867 54.4722 24.84C54.4722 23.7467 54.4855 23.16 54.5122 23.08V21.36C54.5122 20.4 54.4722 19.4667 54.3922 18.56C54.3122 17.6533 54.2189 16.9733 54.1122 16.52C53.8722 15.64 53.5522 14.96 53.1522 14.48C52.7522 14 52.1389 13.76 51.3122 13.76C50.7522 13.76 50.2322 13.8933 49.7522 14.16C49.2722 14.4267 48.8589 14.8 48.5122 15.28C48.0055 16.08 47.6722 17.0533 47.5122 18.2C47.3522 19.6667 47.2322 20.8267 47.1522 21.68C47.0989 22.5067 47.0722 23.4667 47.0722 24.56C47.0722 25.3333 46.9389 25.96 46.6722 26.44C46.4322 26.92 45.9655 27.16 45.2722 27.16C44.7655 27.16 44.2322 27.0267 43.6722 26.76C43.1389 26.4667 42.8722 26.08 42.8722 25.6C42.8722 25.0933 42.9255 24.5867 43.0322 24.08C43.2722 22.56 43.3922 19.9733 43.3922 16.32C43.3922 15.7333 43.2589 15.16 42.9922 14.6C42.7522 14.0133 42.4455 13.56 42.0722 13.24ZM73.8997 17.84C73.8997 16.2133 74.2597 14.8667 74.9797 13.8C75.6997 12.7067 76.6997 11.68 77.9797 10.72C78.353 10.4533 78.9797 10.2267 79.8597 10.04C80.7397 9.82667 81.513 9.72 82.1797 9.72C82.9797 9.72 83.8197 9.89333 84.6997 10.24C85.6064 10.56 86.3397 10.9333 86.8997 11.36C87.8864 12.08 88.5664 12.92 88.9397 13.88C89.313 14.8133 89.4997 15.9333 89.4997 17.24C89.4997 17.8 89.1797 18.3467 88.5397 18.88C87.9264 19.3867 87.2597 19.64 86.5397 19.64L85.0197 19.6C84.2464 19.6 83.1397 19.6267 81.6997 19.68L80.8597 19.72C80.273 19.7733 79.833 19.8 79.5397 19.8C79.113 19.8 78.5264 19.7467 77.7797 19.64C77.8864 20.8933 78.353 21.88 79.1797 22.6C80.0064 23.2933 80.8997 23.64 81.8597 23.64C83.5397 23.64 84.713 23.3067 85.3797 22.64C85.9397 22.24 86.313 21.9867 86.4997 21.88C86.6864 21.7733 86.9797 21.72 87.3797 21.72C87.8064 21.72 88.1797 21.92 88.4997 22.32C88.8197 22.72 88.9797 23.12 88.9797 23.52C88.9797 23.9733 88.6997 24.44 88.1397 24.92C87.6064 25.3733 86.873 25.8533 85.9397 26.36C85.433 26.5733 84.7397 26.76 83.8597 26.92C82.9797 27.08 82.2464 27.16 81.6597 27.16C80.7264 27.16 79.6864 26.8933 78.5397 26.36C77.393 25.8 76.5397 25.1867 75.9797 24.52C75.4197 23.8533 74.9264 22.9067 74.4997 21.68C74.0997 20.4533 73.8997 19.1733 73.8997 17.84ZM81.8597 16.76C83.753 16.76 85.1397 16.6933 86.0197 16.56C85.9664 15.7867 85.7264 15.16 85.2997 14.68C84.873 14.1733 84.2864 13.7467 83.5397 13.4C83.2997 13.2933 83.0864 13.2133 82.8997 13.16C82.713 13.1067 82.4997 13.08 82.2597 13.08C81.033 13.08 79.993 13.4133 79.1397 14.08C78.313 14.7467 77.8197 15.6 77.6597 16.64C78.993 16.72 80.393 16.76 81.8597 16.76Z" fill="black"/>
</svg>
