<svg width="217" height="28" viewBox="0 0 217 28" fill="none" xmlns="http://www.w3.org/2000/svg">
<path d="M20.36 23.92C20.4933 23.9733 20.7067 24.04 21 24.12C21.2933 24.2 21.5067 24.28 21.64 24.36C21.7733 24.44 21.84 24.56 21.84 24.72C21.8667 25.36 21.6267 25.8933 21.12 26.32C20.64 26.72 20.0667 26.92 19.4 26.92C18.36 26.92 17.5467 26.64 16.96 26.08C16.3733 25.52 15.9467 24.6667 15.68 23.52C15.5733 23.0667 15.52 22.44 15.52 21.64C15.52 21.1867 15.5467 20.4533 15.6 19.44C15.6533 18.3733 15.68 17.52 15.68 16.88C15.68 15.9467 15.4133 15.1333 14.88 14.44C14.3733 13.72 13.6533 13.36 12.72 13.36C12.16 13.36 11.5733 13.5333 10.96 13.88C10.3467 14.2 9.92 14.6 9.68 15.08C9.28 15.8533 9 16.6933 8.84 17.6C8.54667 19.2 8.4 20.8667 8.4 22.6C8.4 23.4267 8.41333 24.0667 8.44 24.52C8.44 24.6267 8.44 24.84 8.44 25.16C8.46667 25.4533 8.44 25.7333 8.36 26C8.30667 26.24 8.2 26.4667 8.04 26.68C7.90667 26.8133 7.69333 26.92 7.4 27C7.13333 27.1067 6.88 27.16 6.64 27.16C6.26667 27.16 5.8 27 5.24 26.68C4.68 26.36 4.36 26 4.28 25.6L4.24 24.92C4.24 24.68 4.26667 24.4 4.32 24.08C4.64 22.2133 4.8 20.5867 4.8 19.2C4.8 18.5867 4.78667 18.1067 4.76 17.76L4.72 15.88C4.72 15.24 4.56 14.6267 4.24 14.04C3.92 13.4267 3.54667 13.12 3.12 13.12C2.98667 13.12 2.8 13.1733 2.56 13.28C2.32 13.36 2.12 13.4 1.96 13.4C1.69333 13.4 1.4 13.2667 1.08 13C0.786667 12.7333 0.64 12.4533 0.64 12.16C0.64 11.6 0.826667 11.1467 1.2 10.8C1.6 10.48 1.98667 10.2267 2.36 10.04C2.76 9.85333 3.21333 9.76 3.72 9.76C4.14667 9.76 4.49333 9.8 4.76 9.88C5.02667 9.96 5.38667 10.1333 5.84 10.4C6.08 10.5333 6.36 10.8267 6.68 11.28C7 11.7333 7.26667 12.3733 7.48 13.2C8.17333 11.92 9.02667 11.0267 10.04 10.52C11.08 9.98667 12.4 9.72 14 9.72C14.6133 9.72 15.2667 9.92 15.96 10.32C16.68 10.72 17.2933 11.1867 17.8 11.72C18.28 12.3067 18.68 13.04 19 13.92C19.32 14.7733 19.48 15.5467 19.48 16.24C19.48 16.64 19.4533 17.2933 19.4 18.2C19.32 18.92 19.28 19.68 19.28 20.48C19.28 22.3467 19.64 23.4933 20.36 23.92ZM40.3819 14.16C40.5952 14.5333 40.7685 15.08 40.9019 15.8C41.0352 16.4933 41.1019 17.12 41.1019 17.68C41.1019 18.72 40.8752 20.2 40.4219 22.12C38.5819 25.48 35.8619 27.16 32.2619 27.16C30.9285 27.16 29.5685 26.72 28.1819 25.84C26.7952 24.96 25.8352 23.9467 25.3019 22.8C24.5819 20.5067 24.2219 19.0533 24.2219 18.44C24.2219 17.3733 24.4485 16.24 24.9019 15.04C25.3819 13.84 25.9819 12.8 26.7019 11.92C27.1552 11.3067 27.9685 10.7867 29.1419 10.36C30.3152 9.90667 31.3819 9.68 32.3419 9.68C34.2085 9.68 35.7952 10.04 37.1019 10.76C38.4085 11.4533 39.5019 12.5867 40.3819 14.16ZM36.9019 20.6C37.0352 20.2533 37.1019 19.36 37.1019 17.92C37.1019 17.1467 36.9552 16.3867 36.6619 15.64C36.3952 14.8933 35.9952 14.2533 35.4619 13.72C35.4085 13.6667 35.2619 13.5867 35.0219 13.48C34.7819 13.3467 34.4485 13.2267 34.0219 13.12C33.6219 12.9867 33.1552 12.92 32.6219 12.92C31.1285 12.92 30.0352 13.52 29.3419 14.72C28.6485 15.92 28.3019 17.28 28.3019 18.8C28.3019 19.0667 28.3685 19.5733 28.5019 20.32C28.6619 21.0667 28.7952 21.5333 28.9019 21.72C28.9819 21.9067 29.1819 22.1733 29.5019 22.52C29.8485 22.84 30.2619 23.1333 30.7419 23.4C31.2485 23.64 31.7685 23.76 32.3019 23.76C33.5019 23.76 34.4619 23.48 35.1819 22.92C35.9019 22.3333 36.4752 21.56 36.9019 20.6ZM45.0106 13.08C44.6373 13.0267 44.3306 12.88 44.0906 12.64C43.8773 12.3733 43.7706 12.0533 43.7706 11.68C43.7706 11.2 43.9573 10.8 44.3306 10.48C44.4106 10.4 44.544 10.3333 44.7306 10.28C44.9173 10.2 45.064 10.1333 45.1706 10.08C45.7573 9.89333 46.1306 9.74667 46.2906 9.64C46.904 9.26667 47.3173 8.65333 47.5306 7.8C47.744 6.78667 47.8773 6.09333 47.9306 5.72C47.984 5.13333 48.1706 4.69333 48.4906 4.4C48.8373 4.08 49.264 3.92 49.7706 3.92C50.4373 3.92 50.904 4.09333 51.1706 4.44C51.4373 4.78667 51.5706 5.42667 51.5706 6.36C51.5706 7.58667 51.2773 8.74667 50.6906 9.84C51.064 9.84 51.6773 9.81333 52.5306 9.76C53.8106 9.70667 54.704 9.68 55.2106 9.68C55.664 9.68 56.0506 9.8 56.3706 10.04C56.7173 10.2533 56.8906 10.5733 56.8906 11C56.8906 12.0133 56.424 12.6133 55.4906 12.8C54.6373 13.04 53.0906 13.1867 50.8506 13.24C50.664 15.8533 50.5706 17.92 50.5706 19.44C50.5706 20.3733 50.6106 21.04 50.6906 21.44C50.8506 22.2667 51.1173 22.88 51.4906 23.28C51.8906 23.6533 52.4773 23.84 53.2506 23.84C53.624 23.84 54.184 23.7467 54.9306 23.56C55.384 23.4267 55.744 23.36 56.0106 23.36C56.3573 23.36 56.624 23.48 56.8106 23.72C56.9973 23.96 57.0906 24.28 57.0906 24.68C57.0906 25.4 56.624 26 55.6906 26.48C54.7573 26.9333 53.6506 27.16 52.3706 27.16C51.5706 27.16 50.784 26.9733 50.0106 26.6C49.2373 26.2 48.584 25.72 48.0506 25.16C47.944 25.1067 47.784 24.8133 47.5706 24.28C47.384 23.7467 47.1973 23.16 47.0106 22.52C46.9306 22.2 46.8906 21.4267 46.8906 20.2C46.8906 19.0267 46.9706 17 47.1306 14.12L47.1706 13.24C46.984 13.24 46.6373 13.2267 46.1306 13.2C45.624 13.1467 45.2506 13.1067 45.0106 13.08ZM62.0116 1.32C62.9449 1.4 63.7582 1.65333 64.4516 2.08C65.1449 2.48 65.4916 3.09333 65.4916 3.92C65.4916 4.53333 65.1982 5.02667 64.6116 5.4C64.0516 5.74667 63.3716 5.92 62.5716 5.92C61.7982 5.92 61.2649 5.72 60.9716 5.32C60.6782 4.92 60.5316 4.50667 60.5316 4.08C60.5316 3.28 60.6116 2.61333 60.7716 2.08C60.9582 1.54667 61.3716 1.29333 62.0116 1.32ZM65.2116 19.04V20.2C65.2116 21.24 65.2382 22.2267 65.2916 23.16C65.3716 24.0667 65.4649 24.9867 65.5716 25.92C65.5716 26.24 65.3849 26.5333 65.0116 26.8C64.6382 27.04 64.2916 27.16 63.9716 27.16C63.4649 27.16 62.9449 27.0667 62.4116 26.88C61.9049 26.6667 61.5982 26.4133 61.4916 26.12C61.3316 25.2667 61.2516 24.5067 61.2516 23.84C61.2516 21.6533 61.1849 19.2 61.0516 16.48C60.9449 14.08 60.8916 12.4 60.8916 11.44C60.8916 10.96 61.1316 10.5467 61.6116 10.2C62.0916 9.85333 62.5982 9.68 63.1316 9.68C63.9049 9.68 64.4382 9.85333 64.7316 10.2C65.0516 10.5467 65.2116 11.0933 65.2116 11.84V19.04ZM81.9259 6.16C81.5526 6.16 81.1926 6.06667 80.8459 5.88C80.4993 5.69333 80.2593 5.41333 80.1259 5.04C79.8593 4.32 79.5659 3.81333 79.2459 3.52C78.9526 3.2 78.5926 3.04 78.1659 3.04C77.8993 3.04 77.6459 3.24 77.4059 3.64C77.1926 4.04 77.0326 4.66667 76.9259 5.52C76.7393 7.28 76.6459 8.62667 76.6459 9.56C77.0459 9.64 77.6059 9.68 78.3259 9.68C78.6993 9.68 79.1793 9.65333 79.7659 9.6L80.8459 9.56C81.3259 9.56 81.6993 9.65333 81.9659 9.84C82.2326 10.0267 82.3659 10.3333 82.3659 10.76C82.3659 11.3733 82.1793 11.88 81.8059 12.28C81.4326 12.68 80.9926 12.88 80.4859 12.88C78.5659 12.88 77.2726 12.9733 76.6059 13.16C76.6059 14.76 76.6859 17.0533 76.8459 20.04C76.8459 20.4933 76.8726 21.1467 76.9259 22L77.0859 25.08C77.1393 25.8533 77.0593 26.4 76.8459 26.72C76.6593 27.0133 76.2459 27.16 75.6059 27.16C74.4326 27.16 73.6726 26.4533 73.3259 25.04C73.1126 24.0267 72.9393 22.5867 72.8059 20.72C72.6993 18.8267 72.6459 17.16 72.6459 15.72C72.6459 14.9733 72.6859 14.1067 72.7659 13.12C72.7126 13.0933 72.5659 13.08 72.3259 13.08C72.0859 13.08 71.9126 13.0933 71.8059 13.12C71.0059 13.1733 70.4193 13.2 70.0459 13.2C69.8059 13.2 69.5659 13.0267 69.3259 12.68C69.0859 12.3333 68.9659 11.9333 68.9659 11.48C68.9659 11.2133 69.0593 10.9733 69.2459 10.76C69.4326 10.52 69.6593 10.3467 69.9259 10.24C70.3259 10.0267 70.8993 9.92 71.6459 9.92H72.8459C72.8459 6.18667 73.2593 3.58667 74.0859 2.12C74.8859 0.733332 76.2059 0.039999 78.0459 0.039999C78.8993 0.039999 79.7126 0.213332 80.4859 0.559999C81.2859 0.906666 81.9259 1.38667 82.4059 2C82.9126 2.61333 83.1659 3.30666 83.1659 4.08C83.1659 4.90667 83.0593 5.46666 82.8459 5.76C82.6326 6.02667 82.3259 6.16 81.9259 6.16ZM87.4059 1.32C88.3393 1.4 89.1526 1.65333 89.8459 2.08C90.5393 2.48 90.8859 3.09333 90.8859 3.92C90.8859 4.53333 90.5926 5.02667 90.0059 5.4C89.4459 5.74667 88.7659 5.92 87.9659 5.92C87.1926 5.92 86.6459 5.72 86.3259 5.32C86.0326 4.92 85.8859 4.50667 85.8859 4.08C85.8859 3.30666 85.9793 2.65333 86.1659 2.12C86.3526 1.56 86.7659 1.29333 87.4059 1.32ZM90.5659 19.04V20.2C90.5659 21.0533 90.5926 21.8933 90.6459 22.72C90.7259 23.52 90.8059 24.2933 90.8859 25.04C90.8859 25.2 90.9126 25.4933 90.9659 25.92C90.9393 26.1867 90.7393 26.4667 90.3659 26.76C89.9926 27.0267 89.6593 27.16 89.3659 27.16C88.8593 27.16 88.3393 27.0667 87.8059 26.88C87.2993 26.6667 86.9926 26.4133 86.8859 26.12C86.7259 25.2667 86.6459 24.5067 86.6459 23.84C86.6459 21.6533 86.5793 19.2 86.4459 16.48L86.3659 14.96C86.3393 14.56 86.3126 14.0667 86.2859 13.48C86.2593 12.8933 86.2459 12.2 86.2459 11.4C86.2459 10.92 86.4859 10.5067 86.9659 10.16C87.4726 9.81333 87.9926 9.64 88.5259 9.64C89.2993 9.64 89.8326 9.81333 90.1259 10.16C90.4459 10.5067 90.6059 11.0533 90.6059 11.8L90.5659 19.04ZM109.957 13.64C109.957 14.2 109.837 14.6267 109.597 14.92C109.383 15.2133 109.023 15.36 108.517 15.36C108.143 15.36 107.823 15.2667 107.557 15.08C107.317 14.8933 106.997 14.5733 106.597 14.12C106.277 13.7733 105.903 13.4933 105.477 13.28C105.077 13.0667 104.717 12.96 104.397 12.96C102.77 12.96 101.597 13.3067 100.877 14C100.423 14.48 100.05 15.12 99.7566 15.92C99.4632 16.6933 99.3166 17.4933 99.3166 18.32C99.3166 19.52 99.4899 20.48 99.8366 21.2C100.183 21.92 100.797 22.5333 101.677 23.04C101.997 23.2267 102.45 23.3867 103.037 23.52C103.623 23.6267 104.103 23.68 104.477 23.68C104.983 23.68 105.517 23.5467 106.077 23.28C106.637 22.9867 107.117 22.6133 107.517 22.16C108.023 21.5733 108.637 21.28 109.357 21.28C109.65 21.28 109.983 21.4267 110.357 21.72C110.757 22.0133 110.957 22.36 110.957 22.76C110.957 23.56 110.57 24.3067 109.797 25C109.05 25.6667 108.13 26.2 107.037 26.6C105.943 26.9733 104.93 27.16 103.997 27.16C102.423 27.16 100.957 26.8 99.5966 26.08C98.2632 25.36 97.1966 24.3733 96.3966 23.12C95.5966 21.84 95.1966 20.4 95.1966 18.8C95.1966 17.4133 95.4499 16.0667 95.9566 14.76C96.4899 13.4533 97.1966 12.3867 98.0766 11.56C98.7966 10.8933 99.6899 10.4 100.757 10.08C101.823 9.76 102.943 9.6 104.117 9.6C104.943 9.6 105.797 9.76 106.677 10.08C107.557 10.4 108.263 10.8267 108.797 11.36C109.57 12.1333 109.957 12.8933 109.957 13.64ZM132.507 25.08C132.507 25.6667 132.187 26.16 131.547 26.56C130.907 26.96 130.32 27.16 129.787 27.16C128.8 27.16 128 27.04 127.387 26.8C126.8 26.5333 126.24 26.0533 125.707 25.36C125.04 25.9733 124.107 26.44 122.907 26.76C121.707 27.0533 120.6 27.2 119.587 27.2C117.933 27.2 116.56 26.76 115.467 25.88C114.4 24.9733 113.867 23.6533 113.867 21.92C113.867 21.1733 114.093 20.4267 114.547 19.68C115 18.9067 115.56 18.2933 116.227 17.84C116.947 17.36 117.76 17.04 118.667 16.88C119.573 16.6933 120.627 16.6 121.827 16.6C122.387 16.6 123.053 16.7067 123.827 16.92C124.6 17.1333 125.213 17.36 125.667 17.6V16.96C125.667 15.52 125.307 14.5333 124.587 14C123.893 13.44 122.773 13.16 121.227 13.16C120.747 13.16 120.307 13.24 119.907 13.4C119.533 13.5333 119.093 13.7333 118.587 14C118.107 14.2667 117.653 14.4 117.227 14.4C116.853 14.4 116.493 14.2533 116.147 13.96C115.8 13.64 115.627 13.3067 115.627 12.96C115.627 11.84 116.32 11.0267 117.707 10.52C119.12 9.98667 120.56 9.72 122.027 9.72C122.773 9.72 123.627 9.88 124.587 10.2C125.547 10.4933 126.36 10.9067 127.027 11.44C127.827 12.1067 128.44 12.9067 128.867 13.84C129.32 14.7733 129.547 15.7867 129.547 16.88C129.547 17.2267 129.52 17.7467 129.467 18.44C129.413 19.1867 129.387 19.8267 129.387 20.36L129.347 21.44C129.293 22.0267 129.267 22.4933 129.267 22.84C129.267 23.16 129.373 23.44 129.587 23.68C129.827 23.8933 130.107 24 130.427 24L131.547 23.96C131.84 23.96 132.067 24.08 132.227 24.32C132.413 24.5333 132.507 24.7867 132.507 25.08ZM119.587 24.04C120.733 24.04 121.693 23.92 122.467 23.68C123.24 23.44 124.173 23 125.267 22.36C125.373 21.9067 125.44 21.3067 125.467 20.56C124 19.8667 122.787 19.52 121.827 19.52C120.92 19.52 120.187 19.56 119.627 19.64C119.067 19.6933 118.56 19.92 118.107 20.32C117.653 20.72 117.427 21.36 117.427 22.24C117.427 22.7467 117.667 23.1733 118.147 23.52C118.653 23.8667 119.133 24.04 119.587 24.04ZM135.089 13.16C134.715 13.1067 134.409 12.9467 134.169 12.68C133.955 12.4133 133.849 12.0933 133.849 11.72C133.849 11.5333 133.889 11.3333 133.969 11.12C134.075 10.9067 134.222 10.72 134.409 10.56C134.755 10.2133 135.689 10.04 137.209 10.04C137.422 9 137.529 7.94667 137.529 6.88C137.529 6.48 137.515 6.13333 137.489 5.84C137.462 5.54667 137.449 5.32 137.449 5.16C137.449 4.57333 137.662 4.13333 138.089 3.84C138.542 3.54667 139.049 3.4 139.609 3.4C140.302 3.4 140.769 3.57333 141.009 3.92C141.275 4.26667 141.409 4.90667 141.409 5.84C141.409 7.22667 141.289 8.58667 141.049 9.92C141.475 9.92 142.062 9.89333 142.809 9.84C143.822 9.78667 144.555 9.76 145.009 9.76C145.462 9.76 145.849 9.88 146.169 10.12C146.515 10.3333 146.689 10.64 146.689 11.04C146.689 12.08 146.222 12.6933 145.289 12.88C144.302 13.12 142.769 13.2667 140.689 13.32C140.609 14.36 140.569 15.4933 140.569 16.72C140.569 18.64 140.689 20.2133 140.929 21.44C141.089 22.2933 141.355 22.92 141.729 23.32C142.129 23.6933 142.715 23.88 143.489 23.88C143.942 23.88 144.409 23.76 144.889 23.52C145.209 23.3333 145.502 23.24 145.769 23.24C146.142 23.24 146.409 23.36 146.569 23.6C146.755 23.84 146.849 24.16 146.849 24.56C146.849 25.3067 146.449 25.9333 145.649 26.44C144.849 26.92 143.822 27.16 142.569 27.16C141.795 27.16 141.009 26.9733 140.209 26.6C139.435 26.2267 138.782 25.76 138.249 25.2C138.169 25.12 138.022 24.8133 137.809 24.28C137.595 23.7467 137.409 23.1733 137.249 22.56C136.982 21.3067 136.849 19.5467 136.849 17.28C136.849 16.2933 136.902 14.9733 137.009 13.32L135.089 13.16ZM152.168 1.32C153.101 1.4 153.914 1.65333 154.608 2.08C155.301 2.48 155.648 3.09333 155.648 3.92C155.648 4.53333 155.354 5.02667 154.768 5.4C154.208 5.74667 153.528 5.92 152.728 5.92C151.954 5.92 151.421 5.72 151.128 5.32C150.834 4.92 150.688 4.50667 150.688 4.08C150.688 3.28 150.768 2.61333 150.928 2.08C151.114 1.54667 151.528 1.29333 152.168 1.32ZM155.368 19.04V20.2C155.368 21.24 155.394 22.2267 155.448 23.16C155.528 24.0667 155.621 24.9867 155.728 25.92C155.701 26.1867 155.501 26.4667 155.128 26.76C154.754 27.0267 154.421 27.16 154.128 27.16C153.621 27.16 153.101 27.0667 152.568 26.88C152.061 26.6667 151.754 26.4133 151.648 26.12C151.488 25.2667 151.408 24.5067 151.408 23.84C151.408 21.6533 151.341 19.2 151.208 16.48C151.101 14.08 151.048 12.4 151.048 11.44C151.048 10.96 151.288 10.5467 151.768 10.2C152.248 9.85333 152.754 9.68 153.288 9.68C154.061 9.68 154.594 9.85333 154.888 10.2C155.208 10.5467 155.368 11.0933 155.368 11.84V19.04ZM176.122 14.16C176.336 14.5333 176.509 15.08 176.642 15.8C176.776 16.4933 176.842 17.12 176.842 17.68C176.842 18.4 176.762 19.2 176.602 20.08C176.442 20.96 176.296 21.64 176.162 22.12C174.322 25.48 171.602 27.16 168.002 27.16C166.669 27.16 165.309 26.72 163.922 25.84C162.536 24.96 161.576 23.9467 161.042 22.8C160.322 20.5333 159.962 19.08 159.962 18.44C159.962 17.3733 160.189 16.24 160.642 15.04C161.122 13.84 161.722 12.8 162.442 11.92C162.922 11.3067 163.749 10.7867 164.922 10.36C166.096 9.90667 167.162 9.68 168.122 9.68C169.989 9.68 171.562 10.04 172.842 10.76C174.149 11.4533 175.242 12.5867 176.122 14.16ZM172.642 20.6C172.776 20.3333 172.842 19.44 172.842 17.92C172.842 17.1467 172.696 16.3867 172.402 15.64C172.136 14.8933 171.736 14.2533 171.202 13.72C171.149 13.6667 171.002 13.5867 170.762 13.48C170.522 13.3467 170.189 13.2267 169.762 13.12C169.362 12.9867 168.896 12.92 168.362 12.92C166.869 12.92 165.776 13.52 165.082 14.72C164.389 15.92 164.042 17.28 164.042 18.8C164.042 19.04 164.122 19.5333 164.282 20.28C164.442 21.0267 164.562 21.5067 164.642 21.72C164.856 22.0933 165.282 22.5333 165.922 23.04C166.589 23.52 167.309 23.76 168.082 23.76C169.282 23.76 170.229 23.48 170.922 22.92C171.642 22.3333 172.216 21.56 172.642 20.6ZM180.355 12.92C180.141 12.76 179.968 12.6 179.835 12.44C179.701 12.2533 179.635 11.9333 179.635 11.48C179.635 10.9733 179.808 10.5867 180.155 10.32C180.528 10.0267 180.955 9.88 181.435 9.88C182.368 9.88 183.168 10.12 183.835 10.6C184.528 11.08 185.035 11.7467 185.355 12.6C185.941 11.5067 186.688 10.76 187.595 10.36C188.501 9.93333 189.755 9.72 191.355 9.72C191.995 9.72 192.648 9.92 193.315 10.32C194.008 10.6933 194.635 11.16 195.195 11.72C195.648 12.3067 196.035 13.04 196.355 13.92C196.675 14.7733 196.835 15.5467 196.835 16.24C196.835 16.64 196.808 17.2933 196.755 18.2C196.701 19.16 196.675 19.92 196.675 20.48C196.675 22.3467 197.035 23.4933 197.755 23.92C197.861 23.9733 198.061 24.04 198.355 24.12C198.648 24.2 198.861 24.28 198.995 24.36C199.155 24.44 199.235 24.56 199.235 24.72C199.261 25.36 199.021 25.8933 198.515 26.32C198.035 26.72 197.448 26.92 196.755 26.92C195.715 26.92 194.901 26.64 194.315 26.08C193.728 25.52 193.315 24.6667 193.075 23.52C192.941 23.0933 192.875 22.4667 192.875 21.64C192.875 21.1867 192.901 20.4533 192.955 19.44C193.035 18.64 193.075 17.7867 193.075 16.88C193.075 15.9467 192.808 15.1333 192.275 14.44C191.741 13.72 191.008 13.36 190.075 13.36C189.515 13.36 188.928 13.5333 188.315 13.88C187.701 14.2 187.275 14.6 187.035 15.08C186.635 15.9067 186.368 16.7467 186.235 17.6C185.915 19.2533 185.755 20.84 185.755 22.36C185.755 22.7333 185.781 23.4533 185.835 24.52C185.835 24.6 185.835 24.8 185.835 25.12C185.835 25.4133 185.795 25.6933 185.715 25.96C185.661 26.2267 185.555 26.4667 185.395 26.68C185.288 26.7867 185.088 26.8933 184.795 27C184.501 27.1067 184.248 27.16 184.035 27.16C183.661 27.16 183.195 27 182.635 26.68C182.075 26.36 181.741 26 181.635 25.6L181.595 25.04C181.595 24.8267 181.621 24.5067 181.675 24.08C181.995 22.2133 182.155 20.5867 182.155 19.2C182.155 18.5867 182.141 18.12 182.115 17.8L182.075 15.96C182.075 15.4 181.915 14.8667 181.595 14.36C181.275 13.8267 180.861 13.3467 180.355 12.92ZM213.363 17.84C214.429 18.4533 215.176 19.0667 215.603 19.68C216.029 20.2667 216.243 21.04 216.243 22C216.243 22.96 215.963 23.8133 215.403 24.56C214.843 25.28 214.123 25.84 213.243 26.24C212.603 26.5333 211.803 26.76 210.843 26.92C209.909 27.08 209.176 27.16 208.643 27.16C207.709 27.16 206.696 26.9867 205.603 26.64C204.509 26.2933 203.576 25.8 202.803 25.16C202.056 24.52 201.683 23.7733 201.683 22.92C201.683 22.3867 201.856 21.9733 202.203 21.68C202.549 21.36 203.003 21.2 203.563 21.2C204.016 21.2 204.496 21.52 205.003 22.16C205.509 22.72 206.096 23.1467 206.763 23.44C207.456 23.7333 208.136 23.88 208.803 23.88C211.336 23.88 212.603 23.3067 212.603 22.16C212.603 21.92 212.523 21.6933 212.363 21.48C212.203 21.24 212.056 21.08 211.923 21C211.683 20.8133 211.349 20.6533 210.923 20.52C210.496 20.3867 210.069 20.28 209.643 20.2C209.216 20.0933 208.896 20.0133 208.683 19.96C208.469 19.9067 208.016 19.8133 207.323 19.68C206.656 19.5467 206.016 19.32 205.403 19C204.389 18.52 203.563 17.9333 202.923 17.24C202.309 16.5467 202.003 15.6533 202.003 14.56C202.003 13.9467 202.149 13.3333 202.443 12.72C202.763 12.08 203.189 11.6 203.723 11.28C204.523 10.7733 205.403 10.3867 206.363 10.12C207.323 9.85333 208.216 9.72 209.043 9.72C209.709 9.72 210.456 9.78667 211.283 9.92C212.136 10.0533 212.749 10.24 213.123 10.48C213.816 10.8533 214.323 11.24 214.643 11.64C214.963 12.04 215.123 12.5467 215.123 13.16C215.123 13.4533 215.056 13.7467 214.923 14.04C214.789 14.3067 214.629 14.4933 214.443 14.6C214.016 14.76 213.643 14.84 213.323 14.84C213.083 14.84 212.883 14.8 212.723 14.72C212.563 14.6133 212.416 14.5067 212.283 14.4C212.176 14.2933 212.109 14.2267 212.083 14.2C211.736 13.8267 211.349 13.5333 210.923 13.32C210.496 13.1067 209.869 13 209.043 13C208.509 13 207.989 13.08 207.483 13.24C207.003 13.3733 206.629 13.5467 206.363 13.76C206.149 13.92 206.003 14.0667 205.923 14.2C205.843 14.3067 205.803 14.4533 205.803 14.64C205.803 15.3867 206.549 15.9333 208.043 16.28C209.563 16.6267 210.363 16.8133 210.443 16.84C210.603 16.8933 211.043 17.0267 211.763 17.24C212.509 17.4533 213.043 17.6533 213.363 17.84Z" fill="black"/>
</svg>
