<svg width="74" height="33" viewBox="0 0 74 33" fill="none" xmlns="http://www.w3.org/2000/svg">
<path d="M3.04 10.08C2.8 10.08 2.57333 10.1067 2.36 10.16C2.14667 10.1867 1.93333 10.2 1.72 10.2C1.42667 10.2 1.14667 10.0667 0.88 9.8C0.64 9.53333 0.52 9.29333 0.52 9.08C0.52 8.38667 0.866667 7.85333 1.56 7.48C2.25333 7.08 2.96 6.88 3.68 6.88C4.29333 6.88 4.92 7.09333 5.56 7.52C6.22667 7.92 6.72 8.44 7.04 9.08C7.73333 8.25333 8.58667 7.65333 9.6 7.28C10.6133 6.90667 11.6667 6.72 12.76 6.72C13.9867 6.72 15.12 7.10667 16.16 7.88C17.2267 8.65333 18.0667 9.64 18.68 10.84C19.2933 12.0133 19.6 13.1867 19.6 14.36C19.6 15.5067 19.48 16.5333 19.24 17.44C19 18.32 18.5733 19.2133 17.96 20.12C17.2667 21.08 16.3333 21.8667 15.16 22.48C14.0133 23.0933 12.64 23.4 11.04 23.4C10.6133 23.4 10.0933 23.2933 9.48 23.08C8.86667 22.84 8.36 22.5867 7.96 22.32C7.77333 24.1333 7.68 25.7067 7.68 27.04C7.68 27.84 7.72 28.6 7.8 29.32C7.85333 30.1733 7.88 30.7867 7.88 31.16C7.88 31.7467 7.68 32.1733 7.28 32.44C6.88 32.7333 6.44 32.88 5.96 32.88C5 32.88 4.36 32.6133 4.04 32.08C3.74667 31.5733 3.6 30.84 3.6 29.88C3.70667 27.5867 3.84 25.4667 4 23.52C4.16 21.12 4.24 17.4133 4.24 12.4C4.24 11.92 4.14667 11.4133 3.96 10.88C3.77333 10.3467 3.46667 10.08 3.04 10.08ZM8.12 18.36C8.25333 18.8667 8.62667 19.2933 9.24 19.64C9.88 19.96 10.4533 20.12 10.96 20.12C12.48 20.12 13.6133 19.7067 14.36 18.88C14.92 18.2933 15.28 17.72 15.44 17.16C15.6267 16.6 15.72 15.7067 15.72 14.48C15.72 13.52 15.5333 12.72 15.16 12.08C14.7867 11.4133 14.3333 10.9333 13.8 10.64C13.2667 10.32 12.76 10.16 12.28 10.16C11.1867 10.16 10.2933 10.4933 9.6 11.16C8.93333 11.8 8.50667 12.68 8.32 13.8C8.18667 14.68 8.12 16.2 8.12 18.36ZM39.1319 11.16C39.3452 11.5333 39.5185 12.08 39.6519 12.8C39.7852 13.4933 39.8519 14.12 39.8519 14.68C39.8519 15.72 39.6252 17.2 39.1719 19.12C37.3319 22.48 34.6119 24.16 31.0119 24.16C29.6785 24.16 28.3185 23.72 26.9319 22.84C25.5452 21.96 24.5852 20.9467 24.0519 19.8C23.3319 17.5067 22.9719 16.0533 22.9719 15.44C22.9719 14.3733 23.1985 13.24 23.6519 12.04C24.1319 10.84 24.7319 9.8 25.4519 8.92C25.9052 8.30667 26.7185 7.78667 27.8919 7.36C29.0652 6.90667 30.1319 6.68 31.0919 6.68C32.9585 6.68 34.5452 7.04 35.8519 7.76C37.1585 8.45333 38.2519 9.58667 39.1319 11.16ZM35.6519 17.6C35.7852 17.2533 35.8519 16.36 35.8519 14.92C35.8519 14.1467 35.7052 13.3867 35.4119 12.64C35.1452 11.8933 34.7452 11.2533 34.2119 10.72C34.1585 10.6667 34.0119 10.5867 33.7719 10.48C33.5319 10.3467 33.1985 10.2267 32.7719 10.12C32.3719 9.98667 31.9052 9.92 31.3719 9.92C29.8785 9.92 28.7852 10.52 28.0919 11.72C27.3985 12.92 27.0519 14.28 27.0519 15.8C27.0519 16.0667 27.1185 16.5733 27.2519 17.32C27.4119 18.0667 27.5452 18.5333 27.6519 18.72C27.7319 18.9067 27.9319 19.1733 28.2519 19.52C28.5985 19.84 29.0119 20.1333 29.4919 20.4C29.9985 20.64 30.5185 20.76 31.0519 20.76C32.2519 20.76 33.2119 20.48 33.9319 19.92C34.6519 19.3333 35.2252 18.56 35.6519 17.6ZM54.9606 15.36C55.174 15.4933 55.5873 15.7467 56.2006 16.12C56.8406 16.4667 57.2673 16.88 57.4806 17.36C57.694 17.84 57.8006 18.5067 57.8006 19.36C57.8006 20.32 57.5206 21.1733 56.9606 21.92C56.4006 22.64 55.6806 23.2 54.8006 23.6C54.1873 23.8667 53.5206 24.0267 52.8006 24.08C52.1073 24.1333 51.2673 24.16 50.2806 24.16C49.7473 24.16 49.054 24.08 48.2006 23.92C47.374 23.76 46.8006 23.6133 46.4806 23.48C45.6273 23 44.9073 22.44 44.3206 21.8C43.734 21.16 43.4406 20.5067 43.4406 19.84C43.4406 19.3067 43.614 18.88 43.9606 18.56C44.3073 18.24 44.7606 18.08 45.3206 18.08C45.614 18.08 45.894 18.16 46.1606 18.32C46.454 18.4533 46.654 18.6133 46.7606 18.8C47.054 19.4933 47.5473 20.0133 48.2406 20.36C48.934 20.7067 49.6406 20.88 50.3606 20.88C52.894 20.88 54.1606 20.4267 54.1606 19.52C54.1606 19.28 54.094 19.0933 53.9606 18.96C53.854 18.8 53.694 18.64 53.4806 18.48C53.134 18.24 52.6406 17.9867 52.0006 17.72C51.3873 17.4533 50.8406 17.2533 50.3606 17.12C49.2673 16.88 48.2006 16.52 47.1606 16.04C46.2006 15.56 45.414 14.9333 44.8006 14.16C44.1873 13.36 43.8806 12.3867 43.8806 11.24C43.8806 10.5467 44.134 9.86667 44.6406 9.2C45.174 8.50667 45.7873 7.98667 46.4806 7.64C46.9606 7.45333 47.7473 7.25333 48.8406 7.04C49.934 6.82667 50.6806 6.72 51.0806 6.72C51.694 6.72 52.3606 6.78667 53.0806 6.92C53.8006 7.02667 54.3473 7.21333 54.7206 7.48C55.4406 7.90667 56.0273 8.36 56.4806 8.84C56.934 9.29333 57.1606 9.81333 57.1606 10.4C57.1606 10.6933 57.094 11.0133 56.9606 11.36C56.8273 11.68 56.6673 11.88 56.4806 11.96C56.0806 12.1467 55.614 12.24 55.0806 12.24C54.8406 12.24 54.6406 12.1733 54.4806 12.04C54.3473 11.9067 54.1606 11.6933 53.9206 11.4C53.6273 10.9467 53.3473 10.68 53.0806 10.6C52.7606 10.52 52.294 10.4267 51.6806 10.32C51.0673 10.1867 50.654 10.12 50.4406 10.12C49.774 10.12 49.134 10.2533 48.5206 10.52C47.934 10.7867 47.6406 11.1467 47.6406 11.6C47.6406 12.1333 48.0806 12.5867 48.9606 12.96C49.5206 13.2267 50.134 13.4533 50.8006 13.64C51.494 13.8267 51.9206 13.9467 52.0806 14C52.454 14.08 52.934 14.2667 53.5206 14.56C54.134 14.8533 54.614 15.12 54.9606 15.36ZM61.6531 10.16C61.2798 10.1067 60.9731 9.94667 60.7331 9.68C60.5198 9.41333 60.4131 9.09333 60.4131 8.72C60.4131 8.53333 60.4531 8.33333 60.5331 8.12C60.6398 7.90667 60.7865 7.72 60.9731 7.56C61.3198 7.26667 61.7865 6.98667 62.3731 6.72C62.9865 6.48 63.4265 6.18667 63.6931 5.84C63.9598 5.49333 64.0931 4.84 64.0931 3.88C64.0931 3.48 64.0665 3.13333 64.0131 2.84C63.9865 2.54667 63.9731 2.32 63.9731 2.16C63.9731 1.57333 64.1865 1.13333 64.6131 0.839998C65.0398 0.546665 65.5331 0.399999 66.0931 0.399999C66.7865 0.399999 67.2531 0.573332 67.4931 0.919999C67.7598 1.26667 67.8931 1.90667 67.8931 2.84C67.8931 3.74667 67.8531 4.53333 67.7731 5.2C67.6931 5.84 67.5198 6.41333 67.2531 6.92C67.6265 6.92 68.2398 6.89333 69.0931 6.84C70.2665 6.78667 71.0798 6.76 71.5331 6.76C71.9865 6.76 72.3865 6.88 72.7331 7.12C73.0798 7.33333 73.2531 7.64 73.2531 8.04C73.2531 8.6 73.1331 9.01333 72.8931 9.28C72.6531 9.54667 72.3065 9.72 71.8531 9.8C70.7598 10.0933 69.2131 10.2667 67.2131 10.32C67.1598 11.36 67.1331 12.4933 67.1331 13.72C67.1331 15.7733 67.2531 17.3467 67.4931 18.44C67.6531 19.2933 67.9198 19.92 68.2931 20.32C68.6931 20.6933 69.2798 20.88 70.0531 20.88C70.4531 20.88 70.7731 20.8267 71.0131 20.72C71.2798 20.6133 71.4265 20.5467 71.4531 20.52C71.7731 20.3333 72.0665 20.24 72.3331 20.24C72.7065 20.24 72.9731 20.36 73.1331 20.6C73.3198 20.84 73.4131 21.16 73.4131 21.56C73.4131 22.3067 73.0131 22.9333 72.2131 23.44C71.4131 23.92 70.3865 24.16 69.1331 24.16C67.7198 24.16 66.5198 23.7467 65.5331 22.92C64.5731 22.0667 63.9998 20.9467 63.8131 19.56C63.5465 18.3067 63.4131 16.5467 63.4131 14.28C63.4131 13.2933 63.4665 11.9733 63.5731 10.32L61.6531 10.16Z" fill="black"/>
</svg>
