<svg width="111" height="28" viewBox="0 0 111 28" fill="none" xmlns="http://www.w3.org/2000/svg">
<path d="M12.32 18C12.5333 18.1333 12.9467 18.3867 13.56 18.76C14.2 19.1067 14.6267 19.52 14.84 20C15.0533 20.48 15.16 21.1467 15.16 22C15.16 22.96 14.88 23.8133 14.32 24.56C13.76 25.28 13.04 25.84 12.16 26.24C11.52 26.5333 10.7333 26.76 9.8 26.92C8.89333 27.08 8.17333 27.16 7.64 27.16C7.10667 27.16 6.41333 27.08 5.56 26.92C4.73333 26.76 4.16 26.6133 3.84 26.48C3.01333 26 2.29333 25.4133 1.68 24.72C1.09333 24.0267 0.8 23.32 0.8 22.6C0.8 22.0667 0.973333 21.6533 1.32 21.36C1.66667 21.04 2.12 20.88 2.68 20.88C2.94667 20.88 3.22667 20.9867 3.52 21.2C3.81333 21.3867 4.01333 21.5867 4.12 21.8C4.41333 22.4933 4.90667 23.0133 5.6 23.36C6.29333 23.7067 7 23.88 7.72 23.88C8.65333 23.88 9.52 23.7333 10.32 23.44C11.12 23.12 11.52 22.6933 11.52 22.16C11.52 21.92 11.4533 21.7333 11.32 21.6C11.2133 21.44 11.0533 21.28 10.84 21.12C10.4667 20.8533 9.90667 20.64 9.16 20.48C8.41333 20.2933 7.93333 20.1733 7.72 20.12C6.62667 19.88 5.56 19.52 4.52 19.04C3.48 18.5333 2.65333 17.9333 2.04 17.24C1.42667 16.5467 1.12 15.6533 1.12 14.56C1.12 13.84 1.38667 13.0933 1.92 12.32C2.45333 11.52 3.05333 10.96 3.72 10.64C4.2 10.4533 5 10.2533 6.12 10.04C7.26667 9.82667 8.04 9.72 8.44 9.72C9.05333 9.72 9.72 9.78667 10.44 9.92C11.16 10.0267 11.7067 10.2133 12.08 10.48C12.8 10.9067 13.3867 11.36 13.84 11.84C14.2933 12.2933 14.52 12.8133 14.52 13.4C14.52 13.6933 14.4533 14.0133 14.32 14.36C14.1867 14.68 14.0267 14.88 13.84 14.96C13.44 15.1467 12.9733 15.24 12.44 15.24C12.2 15.24 12 15.1733 11.84 15.04C11.7067 14.9067 11.52 14.6933 11.28 14.4C10.9867 13.9467 10.7067 13.68 10.44 13.6C10.12 13.52 9.65333 13.4267 9.04 13.32C8.42667 13.1867 8.01333 13.12 7.8 13.12C7.18667 13.12 6.54667 13.2933 5.88 13.64C5.24 13.9867 4.92 14.3867 4.92 14.84C4.92 15.08 5.01333 15.2667 5.2 15.4C5.41333 15.5333 5.62667 15.6533 5.84 15.76C6.08 15.8667 6.24 15.9333 6.32 15.96C6.88 16.2267 7.49333 16.4533 8.16 16.64C8.85333 16.8267 9.28 16.9467 9.44 17C10.88 17.3467 11.84 17.68 12.32 18ZM18.6125 18.52C18.6125 17.5067 18.7992 16.4933 19.1725 15.48C19.5458 14.44 20.0392 13.4933 20.6525 12.64C21.2658 11.7867 22.2392 11.0933 23.5725 10.56C24.9058 10 26.0925 9.72 27.1325 9.72C28.1992 9.72 29.2792 9.86667 30.3725 10.16C31.4925 10.4533 32.2658 10.9067 32.6925 11.52C33.6792 12.9067 34.1725 14.2667 34.1725 15.6C34.1725 16.32 34.0125 16.9333 33.6925 17.44C33.3992 17.9467 32.9725 18.4933 32.4125 19.08C31.9592 19.56 31.2392 19.88 30.2525 20.04C29.2925 20.2 28.3325 20.28 27.3725 20.28C26.7592 20.28 26.0125 20.2267 25.1325 20.12C24.2525 19.9867 23.3992 19.8267 22.5725 19.64C22.6258 20.1733 22.7592 20.6933 22.9725 21.2C23.1858 21.7067 23.4392 22.0933 23.7325 22.36C24.2658 22.8667 24.8125 23.1867 25.3725 23.32C25.9592 23.4533 26.7058 23.52 27.6125 23.52C28.5725 23.52 29.4658 23.36 30.2925 23.04C30.9592 22.8 31.5058 22.68 31.9325 22.68C32.4392 22.68 32.8258 22.84 33.0925 23.16C33.3592 23.4533 33.4925 23.84 33.4925 24.32C33.4925 24.9867 33.1058 25.5333 32.3325 25.96C31.5592 26.3867 30.6658 26.7067 29.6525 26.92C28.6658 27.1067 27.8658 27.2 27.2525 27.2C25.9992 27.2 24.7858 26.9733 23.6125 26.52C22.4392 26.0667 21.4658 25.4267 20.6925 24.6C20.0525 23.8533 19.5458 22.96 19.1725 21.92C18.7992 20.8533 18.6125 19.72 18.6125 18.52ZM27.3325 13.12C26.7458 13.12 26.1592 13.24 25.5725 13.48C24.9858 13.6933 24.5058 14 24.1325 14.4C23.6525 14.9067 23.3192 15.32 23.1325 15.64C22.9725 15.9333 22.8658 16.3467 22.8125 16.88C23.4792 17.0933 24.8658 17.2 26.9725 17.2C28.1192 17.2 28.9992 17.0267 29.6125 16.68C30.2525 16.3333 30.5725 15.88 30.5725 15.32C30.5725 14.76 30.2258 14.2533 29.5325 13.8C28.8392 13.3467 28.1058 13.12 27.3325 13.12ZM53.195 27.16C52.2883 27.16 51.595 27.0267 51.115 26.76C50.635 26.4667 50.115 25.9333 49.555 25.16C48.8617 25.7733 47.8217 26.2667 46.435 26.64C45.075 27.0133 43.9017 27.2 42.915 27.2C41.2883 27.2 39.9683 26.76 38.955 25.88C37.9683 24.9733 37.475 23.6533 37.475 21.92C37.475 21.1733 37.675 20.4933 38.075 19.88C38.5017 19.24 39.0483 18.68 39.715 18.2C40.4617 17.6933 41.3417 17.2933 42.355 17C43.395 16.7067 44.3417 16.56 45.195 16.56C46.635 16.56 47.915 16.6933 49.035 16.96V16.92C49.035 15.48 48.675 14.4933 47.955 13.96C47.2617 13.4 46.1417 13.12 44.595 13.12C43.6083 13.12 42.755 13.56 42.035 14.44C41.7683 14.7867 41.2083 14.96 40.355 14.96C39.9283 14.96 39.6083 14.7867 39.395 14.44C39.2083 14.0667 39.115 13.6933 39.115 13.32C39.115 12.5467 39.435 11.88 40.075 11.32C40.7417 10.76 41.5417 10.3467 42.475 10.08C43.4083 9.78667 44.275 9.64 45.075 9.64C45.8483 9.64 46.7683 9.8 47.835 10.12C48.9017 10.44 49.7683 10.8667 50.435 11.4C51.235 12.0933 51.8483 12.9067 52.275 13.84C52.7283 14.7467 52.955 15.7467 52.955 16.84C52.955 17.1867 52.9283 17.7067 52.875 18.4C52.8217 19.2 52.795 19.8533 52.795 20.36C52.795 20.6 52.7683 20.9067 52.715 21.28C52.6617 21.76 52.635 22.16 52.635 22.48C52.635 22.8267 52.7417 23.16 52.955 23.48C53.1683 23.8 53.4617 24.0667 53.835 24.28C54.1817 24.4667 54.4083 24.6667 54.515 24.88C54.6217 25.0933 54.675 25.3333 54.675 25.6C54.675 25.8667 54.5017 26.2 54.155 26.6C53.835 26.9733 53.515 27.16 53.195 27.16ZM45.195 19.52C44.155 19.52 43.235 19.72 42.435 20.12C41.635 20.52 41.235 21.2267 41.235 22.24C41.235 22.7467 41.4083 23.1733 41.755 23.52C42.1283 23.8667 42.5283 24.04 42.955 24.04C44.1017 24.04 45.0617 23.92 45.835 23.68C46.6083 23.44 47.5417 23 48.635 22.36C48.7683 21.9333 48.8483 21.3333 48.875 20.56C48.875 20.2667 48.8883 20.04 48.915 19.88C47.475 19.64 46.235 19.52 45.195 19.52ZM57.8425 12.96C57.1492 12.48 56.8025 11.9733 56.8025 11.44C56.8025 11.0667 56.9625 10.72 57.2825 10.4C57.6025 10.08 58.0825 9.92 58.7225 9.92C59.4692 9.92 60.1358 10.12 60.7225 10.52C61.3358 10.8933 61.7625 11.44 62.0025 12.16C62.6158 11.44 63.3092 10.8667 64.0825 10.44C64.8825 10.0133 65.6958 9.8 66.5225 9.8C67.5092 9.8 68.4025 10.0667 69.2025 10.6C70.0025 11.1333 70.4025 11.8533 70.4025 12.76C70.4025 13.2667 70.1758 13.7867 69.7225 14.32C69.2958 14.8533 68.8558 15.12 68.4025 15.12C68.1625 15.12 67.9492 15.0667 67.7625 14.96C67.6025 14.8267 67.4025 14.64 67.1625 14.4C66.8958 14.1333 66.6692 13.9467 66.4825 13.84C66.2958 13.7067 66.0825 13.64 65.8425 13.64C65.4158 13.64 65.0158 13.7067 64.6425 13.84C64.2692 13.9733 64.0158 14.1333 63.8825 14.32C63.4558 14.9867 63.1358 15.5867 62.9225 16.12C62.7358 16.6533 62.6425 17.2267 62.6425 17.84C62.6425 18.2933 62.6292 18.6533 62.6025 18.92L62.5625 21.2C62.5625 21.5467 62.5758 21.9333 62.6025 22.36C62.6292 22.7867 62.6558 23.1067 62.6825 23.32C62.7625 24.04 62.8025 24.7333 62.8025 25.4C62.8025 25.8533 62.6292 26.2533 62.2825 26.6C61.9358 26.9467 61.5092 27.12 61.0025 27.12C60.2025 27.12 59.6158 26.9733 59.2425 26.68C58.8692 26.36 58.6825 25.7867 58.6825 24.96L58.6425 22.4C58.6158 21.8933 58.6025 21.1733 58.6025 20.24L58.6425 17.6C58.6958 16.32 58.7225 15.28 58.7225 14.48C58.7225 14.1867 58.6558 13.92 58.5225 13.68C58.4158 13.44 58.1892 13.2 57.8425 12.96ZM87.1206 13.64C87.1206 14.2 87.0006 14.6267 86.7606 14.92C86.5473 15.2133 86.1873 15.36 85.6806 15.36C85.3073 15.36 84.9873 15.2667 84.7206 15.08C84.4806 14.8933 84.1606 14.5733 83.7606 14.12C83.4406 13.7733 83.0673 13.4933 82.6406 13.28C82.2406 13.0667 81.8806 12.96 81.5606 12.96C79.934 12.96 78.7606 13.3067 78.0406 14C77.5873 14.48 77.214 15.12 76.9206 15.92C76.6273 16.6933 76.4806 17.4933 76.4806 18.32C76.4806 19.52 76.654 20.48 77.0006 21.2C77.3473 21.92 77.9606 22.5333 78.8406 23.04C79.1606 23.2267 79.614 23.3867 80.2006 23.52C80.7873 23.6267 81.2673 23.68 81.6406 23.68C82.1473 23.68 82.6806 23.5467 83.2406 23.28C83.8006 22.9867 84.2806 22.6133 84.6806 22.16C85.1873 21.5733 85.8006 21.28 86.5206 21.28C86.814 21.28 87.1473 21.4267 87.5206 21.72C87.9206 22.0133 88.1206 22.36 88.1206 22.76C88.1206 23.56 87.734 24.3067 86.9606 25C86.214 25.6667 85.294 26.2 84.2006 26.6C83.1073 26.9733 82.094 27.16 81.1606 27.16C79.5873 27.16 78.1206 26.8 76.7606 26.08C75.4273 25.36 74.3606 24.3733 73.5606 23.12C72.7606 21.84 72.3606 20.4 72.3606 18.8C72.3606 17.4133 72.614 16.0667 73.1206 14.76C73.654 13.4533 74.3606 12.3867 75.2406 11.56C75.9606 10.8933 76.854 10.4 77.9206 10.08C78.9873 9.76 80.1073 9.6 81.2806 9.6C82.1073 9.6 82.9606 9.76 83.8406 10.08C84.7206 10.4 85.4273 10.8267 85.9606 11.36C86.734 12.1333 87.1206 12.8933 87.1206 13.64ZM96.3506 1.64C96.3506 2.33333 96.3373 3.14667 96.3106 4.08C96.284 4.98667 96.2573 5.68 96.2306 6.16C96.1506 7.52 96.1106 8.88 96.1106 10.24C96.1106 11.2533 96.1506 12.3067 96.2306 13.4C97.0573 12.2 97.9506 11.32 98.9106 10.76C99.8706 10.2 101.031 9.92 102.391 9.92C103.377 9.92 104.297 10.36 105.151 11.24C106.004 12.12 106.551 13.1467 106.791 14.32C106.871 15.36 106.911 16.6267 106.911 18.12C106.911 19.08 106.964 20.3333 107.071 21.88C107.124 22.4667 107.271 23.0133 107.511 23.52C107.777 24.0267 108.151 24.28 108.631 24.28C108.871 24.28 109.057 24.2667 109.191 24.24C109.351 24.2133 109.497 24.2 109.631 24.2C110.004 24.2 110.257 24.2933 110.391 24.48C110.551 24.6667 110.631 24.9333 110.631 25.28C110.631 25.92 110.311 26.4 109.671 26.72C109.031 27.04 108.444 27.2 107.911 27.2C105.991 27.2 104.671 26.4 103.951 24.8C103.551 23.8933 103.297 22.72 103.191 21.28C103.084 19.8133 103.031 18.1067 103.031 16.16C103.031 14.24 102.377 13.28 101.071 13.28C100.351 13.28 99.6173 13.6667 98.8706 14.44C98.1506 15.1867 97.5506 16.1867 97.0706 17.44C96.5906 18.6667 96.3506 19.9467 96.3506 21.28L96.3906 25.44C96.3906 26.0267 96.164 26.4667 95.7106 26.76C95.2573 27.0267 94.8306 27.16 94.4306 27.16C93.844 27.16 93.3106 26.9867 92.8306 26.64C92.3506 26.2667 92.1106 25.8533 92.1106 25.4C92.2973 23.4 92.3906 20.0533 92.3906 15.36C92.3906 14.5067 92.324 11.3467 92.1906 5.88L92.0706 2.2C92.0706 1.61333 92.3373 1.10667 92.8706 0.679998C93.404 0.226666 94.004 -4.76837e-07 94.6706 -4.76837e-07C95.2573 -4.76837e-07 95.684 0.133333 95.9506 0.399999C96.2173 0.666666 96.3506 1.08 96.3506 1.64Z" fill="black"/>
</svg>
