<svg width="66" height="57" viewBox="0 0 66 57" fill="none" xmlns="http://www.w3.org/2000/svg">
<path d="M64.4919 0.807977C65.4458 1.48515 66.0001 2.49663 66.0001 3.46466V19.5057C66.0001 22.5579 62.3005 24.8527 57.6341 24.8527C53.1997 24.8527 49.3841 22.5579 49.3841 19.5057C49.3841 16.654 53.1997 14.1587 57.6341 14.1587V7.91271L45.2591 10.0515V23.0704C45.2591 26.1226 41.6755 28.4174 37.0091 28.4174C32.5748 28.4174 28.7592 26.1226 28.7592 23.0704C28.7592 20.2186 32.5748 17.7234 37.0091 17.7234V7.02934C37.0091 5.42969 38.5173 3.96706 40.438 3.63398L61.063 0.0692875C62.2747 -0.140226 63.5379 0.130912 64.4919 0.807977ZM9.6244 33.7644L11.1506 31.8818C11.9151 30.8904 13.2002 30.1997 14.5795 30.1997H22.5459C23.9252 30.1997 25.2143 30.8904 25.9748 31.8818L27.4959 33.7644H30.8217C34.3537 33.7644 37.0091 36.2597 37.0091 39.1114V51.5878C37.0091 54.64 34.3537 56.9348 30.8217 56.9348H6.07176C2.77048 56.9348 5.14984e-05 54.64 5.14984e-05 51.5878V39.1114C5.14984e-05 36.2597 2.77048 33.7644 6.07176 33.7644H9.6244ZM18.4467 40.0026C15.1467 40.0026 12.2592 42.4978 12.2592 45.3496C12.2592 48.4018 15.1467 50.6966 18.4467 50.6966C21.9787 50.6966 24.6342 48.4018 24.6342 45.3496C24.6342 42.4978 21.9787 40.0026 18.4467 40.0026ZM56.7575 40.8937H63.9376C64.8012 40.8937 65.5618 41.4507 65.7551 42.1525C66.1676 42.8432 65.9485 43.6341 65.2911 44.1131L48.7911 56.5894C48.0693 57.0462 46.9993 57.1798 46.2259 56.6897C45.4525 56.2107 45.156 55.3195 45.5427 54.5509L50.4927 44.4584H43.3126C42.449 44.4584 41.6884 44.1019 41.3791 43.4002C41.0826 42.7095 41.3017 41.9186 41.9591 41.3393L58.4591 28.863C59.1809 28.4062 60.2509 28.3728 61.0243 28.863C61.7977 29.342 62.0813 30.2331 61.7075 31.0018L56.7575 40.8937ZM15.0436 24.4071L2.55908 13.2787C-1.04539 10.0549 -0.852287 4.71341 3.2036 1.70906C6.68019 -0.906185 12.022 -0.40546 15.237 2.43202L16.526 3.60057L17.7506 2.43202C20.9733 -0.40546 26.2455 -0.906185 29.8549 1.70906C33.851 4.71341 34.0443 10.0549 30.435 13.2787L18.0084 24.4071C17.1705 25.1312 15.817 25.1312 15.0436 24.4071Z" fill="black"/>
</svg>
