<svg width="50" height="46" viewBox="0 0 50 46" fill="none" xmlns="http://www.w3.org/2000/svg">
<path d="M49.3813 12.9156L36.283 0.47749C35.1372 -0.609093 33.3317 0.273997 33.3317 1.96611V8.64058C20.9365 8.78728 11.1106 11.3496 11.1106 23.4547C11.1106 28.3418 14.166 33.1839 17.5408 35.7129C18.5946 36.5032 20.0945 35.5115 19.7057 34.2315C16.2058 22.6987 22.2212 20.1607 33.3317 20.0797V26.7578C33.3317 28.4516 35.1407 29.3309 36.2847 28.2437L49.3831 15.8056C50.2059 15.1027 50.2059 13.6986 49.3813 12.9156ZM36.1094 34.5609C34.5756 34.5609 33.3317 35.8506 33.3317 37.4409V40.2399L5.55529 40.2398V11.5206H8.33294C9.86672 11.5206 11.1106 10.2318 11.1106 8.64058C11.1106 7.04936 9.86932 5.76055 8.33294 5.76055H5.55529C2.48686 5.76055 0 8.33908 0 11.5206V40.2399C0 43.4206 2.48686 46 5.55529 46L33.3317 45.9999C36.4002 45.9999 38.887 43.4205 38.887 40.2398V37.4409C38.887 35.8479 37.6458 34.5609 36.1094 34.5609Z" fill="black"/>
</svg>
