<svg width="55" height="54" viewBox="0 0 55 54" fill="none" xmlns="http://www.w3.org/2000/svg">
<path d="M31.4268 3.375V5.4C40.3884 6.9641 47.1402 13.7742 47.1402 21.9375V23.9203C47.1402 28.8879 49.264 33.6656 53.0941 37.3781L54.0026 38.2535C55.0338 39.2555 55.2916 40.6688 54.6532 41.8816C54.0148 43.0945 52.6154 43.875 51.0686 43.875H3.92832C2.38154 43.875 0.978499 43.0945 0.344806 41.8816C-0.288886 40.6688 -0.0354215 39.2555 0.992371 38.2535L1.90277 37.3781C5.73782 33.6656 7.85668 28.8879 7.85668 23.9203V21.9375C7.85668 13.7742 14.4981 6.9641 23.5701 5.4V3.375C23.5701 1.51137 25.3256 0 27.4984 0C29.6713 0 31.4268 1.51137 31.4268 3.375ZM27.4984 54C25.4115 54 23.4105 53.2934 21.9374 52.0277C20.4642 50.7621 19.6417 48.948 19.6417 47.25H35.3552C35.3552 48.948 34.5327 50.7621 33.0595 52.0277C31.5864 53.2934 29.4749 54 27.4984 54Z" fill="black"/>
</svg>
