<svg width="55" height="54" viewBox="0 0 55 54" fill="none" xmlns="http://www.w3.org/2000/svg">
<path d="M53.7432 46.7915L40.8848 34.1682C43.8088 29.9067 45.2515 24.5821 44.4791 18.9085C43.1621 9.25808 35.1055 1.40466 25.2656 0.181667C10.6358 -1.63568 -1.66624 10.4413 0.185072 24.8036C1.43117 34.4677 9.43198 42.3833 19.2633 43.6699C25.0426 44.4281 30.4674 43.0123 34.8073 40.1413L47.6657 52.7646C49.3437 54.4118 52.0647 54.4118 53.7426 52.7646C55.419 51.1152 55.419 48.4366 53.7432 46.7915ZM8.49698 21.9351C8.49698 14.4919 14.6652 8.43656 22.247 8.43656C29.8289 8.43656 35.9971 14.4919 35.9971 21.9351C35.9971 29.3783 29.8289 35.4337 22.247 35.4337C14.6652 35.4337 8.49698 29.3804 8.49698 21.9351Z" fill="black"/>
</svg>
