<svg width="55" height="54" viewBox="0 0 55 54" fill="none" xmlns="http://www.w3.org/2000/svg">
<path d="M30.2913 45.5625C30.2913 46.4944 29.6748 47.25 28.9144 47.25H15.1456C14.3851 47.25 13.7688 46.4944 13.7688 45.5625V13.5H4.13061C1.84929 13.5 0 15.7676 0 18.5625V48.9375C0 51.7335 1.84932 54 4.13063 54H39.9295C42.2108 54 44.0601 51.7335 44.0601 48.9375L44.0601 40.5H30.2913V45.5625ZM8.94968 46.3008C8.94968 46.8249 8.6028 47.25 8.17519 47.25H5.59354C5.16594 47.25 4.81905 46.8249 4.81905 46.3008V43.1367C4.81905 42.6126 5.16594 42.1875 5.59354 42.1875H8.17519C8.6028 42.1875 8.94968 42.6126 8.94968 43.1367V46.3008ZM8.94968 35.332C8.94968 35.8561 8.6028 36.2812 8.17519 36.2812H5.59354C5.16594 36.2812 4.81905 35.8561 4.81905 35.332V32.168C4.81905 31.6439 5.16594 31.2188 5.59354 31.2188H8.17519C8.6028 31.2188 8.94968 31.6439 8.94968 32.168V35.332ZM8.94968 24.3633C8.94968 24.8874 8.6028 25.3125 8.17519 25.3125H5.59354C5.16594 25.3125 4.81905 24.8874 4.81905 24.3633V21.1992C4.81905 20.6719 5.16585 20.25 5.59354 20.25H8.17519C8.6028 20.25 8.94968 20.6751 8.94968 21.1992V24.3633ZM35.1104 43.1367C35.1104 42.6126 35.4573 42.1875 35.8849 42.1875H38.4665C38.8941 42.1875 39.241 42.6126 39.241 43.1367V46.3008C39.241 46.8249 38.8941 47.25 38.4665 47.25H35.8849C35.4573 47.25 35.1104 46.8249 35.1104 46.3008V43.1367ZM50.867 0H20.5757C18.3727 0 16.4451 2.26652 16.4451 5.0625V32.0625C16.4451 34.8585 18.2944 37.125 20.5757 37.125H50.867C53.1483 37.125 54.9977 34.8585 54.9977 32.0625V5.0625C55.0751 2.26652 53.2249 0 50.867 0ZM26.0832 6.75C27.6047 6.75 28.837 8.26137 28.837 10.125C28.837 11.9886 27.6047 13.5 26.0832 13.5C24.6375 13.5 23.3295 11.9918 23.3295 10.125C23.3295 8.2582 24.6375 6.75 26.0832 6.75ZM49.4041 29.4891C49.1631 30.0375 48.6984 30.375 48.1907 30.375H23.3295C22.8131 30.375 22.4173 30.0164 22.1763 29.4574C21.944 28.8879 21.987 28.2023 22.2968 27.6961L28.3206 17.5711C28.5788 17.1281 28.9919 16.875 29.3533 16.875C29.793 16.875 30.2064 17.1325 30.466 17.5684L32.3893 20.802L37.7884 10.8764C38.0448 10.4066 38.4751 10.125 39.0087 10.125C39.4689 10.125 39.8985 10.4068 40.154 10.8765L49.3361 27.7515C49.6192 28.2656 49.645 28.9301 49.4041 29.4891Z" fill="black"/>
</svg>
